# xmcd
#
# Track frame offsets:
#  150
#  18048
#  34124
#  50713
#  62833
#  90297
#  103961
#  122771
#  133037
#  154312
#
# Disc length: 2250 seconds
#
# Revision: 0
# Processed by: cddbd v1.5.1PL2 Copyright (c) Steve Scherf et al.
# Submitted via: Collectorz.com_Music_Collector 6.11
#
DISCID=8208c80a
DTITLE=Elope - 3WD
DYEAR=2006
DGENRE=
TTITLE0=3WD
TTITLE1=Flatliners
TTITLE2=Misbehaving in the Summernight
TTITLE3=Dragonstone
TTITLE4=Not Even Close
TTITLE5=Chewbacca
TTITLE6=Friend of Mine
TTITLE7=Oh No! (Local Rum)
TTITLE8=Distilled Dreams
TTITLE9=Out from the Blue Two
EXTD=
EXTT0=
EXTT1=
EXTT2=
EXTT3=
EXTT4=
EXTT5=
EXTT6=
EXTT7=
EXTT8=
EXTT9=
PLAYORDER=
